<?xml version="1.0" encoding="utf-8" standalone="no"?>
<!DOCTYPE svg PUBLIC "-//W3C//DTD SVG 1.1//EN"
  "http://www.w3.org/Graphics/SVG/1.1/DTD/svg11.dtd">
<svg xmlns:xlink="http://www.w3.org/1999/xlink" width="792pt" height="360pt" viewBox="0 0 792 360" xmlns="http://www.w3.org/2000/svg" version="1.1">
 <metadata>
  <rdf:RDF xmlns:dc="http://purl.org/dc/elements/1.1/" xmlns:cc="http://creativecommons.org/ns#" xmlns:rdf="http://www.w3.org/1999/02/22-rdf-syntax-ns#">
   <cc:Work>
    <dc:type rdf:resource="http://purl.org/dc/dcmitype/StillImage"/>
    <dc:date>2023-10-19T15:36:32.086517</dc:date>
    <dc:format>image/svg+xml</dc:format>
    <dc:creator>
     <cc:Agent>
      <dc:title>Matplotlib v3.6.2, https://matplotlib.org/</dc:title>
     </cc:Agent>
    </dc:creator>
   </cc:Work>
  </rdf:RDF>
 </metadata>
 <defs>
  <style type="text/css">*{stroke-linejoin: round; stroke-linecap: butt}</style>
 </defs>
 <g id="figure_1">
  <g id="patch_1">
   <path d="M 0 360 
L 792 360 
L 792 0 
L 0 0 
z
" style="fill: #ffffff"/>
  </g>
  <g id="axes_1">
   <g id="patch_2">
    <path d="M 99 320.4 
L 712.8 320.4 
L 712.8 43.2 
L 99 43.2 
z
" style="fill: #ffffff"/>
   </g>
   <g id="BrokenBarHCollection_1">
    <defs>
     <path id="mfdcfaedf0f" d="M 109.960714 -255.2 
L 109.960714 -301.4 
L 142.842857 -301.4 
L 142.842857 -255.2 
L 109.960714 -255.2 
z
" style="stroke: #000000"/>
    </defs>
    <g clip-path="url(#p90b913a2a8)">
     <use xlink:href="#mfdcfaedf0f" x="0" y="360" style="fill: #d62728; stroke: #000000"/>
    </g>
   </g>
   <g id="BrokenBarHCollection_2">
    <defs>
     <path id="m5247da744f" d="M 142.842857 -255.2 
L 142.842857 -301.4 
L 175.725 -301.4 
L 175.725 -255.2 
L 142.842857 -255.2 
z
" style="stroke: #000000"/>
    </defs>
    <g clip-path="url(#p90b913a2a8)">
     <use xlink:href="#m5247da744f" x="0" y="360" style="fill: #d62728; stroke: #000000"/>
    </g>
   </g>
   <g id="BrokenBarHCollection_3">
    <defs>
     <path id="madd0760067" d="M 427.821429 -255.2 
L 427.821429 -301.4 
L 460.703571 -301.4 
L 460.703571 -255.2 
L 427.821429 -255.2 
z
" style="stroke: #000000"/>
    </defs>
    <g clip-path="url(#p90b913a2a8)">
     <use xlink:href="#madd0760067" x="0" y="360" style="fill: #d62728; stroke: #000000"/>
    </g>
   </g>
   <g id="BrokenBarHCollection_4">
    <defs>
     <path id="m5f36317752" d="M 99 -203.866667 
L 99 -250.066667 
L 153.803571 -250.066667 
L 153.803571 -203.866667 
L 99 -203.866667 
z
" style="stroke: #000000"/>
    </defs>
    <g clip-path="url(#p90b913a2a8)">
     <use xlink:href="#m5f36317752" x="0" y="360" style="fill: #2ca02c; stroke: #000000"/>
    </g>
   </g>
   <g id="BrokenBarHCollection_5">
    <defs>
     <path id="m2887c1b27c" d="M 329.175 -203.866667 
L 329.175 -250.066667 
L 383.978571 -250.066667 
L 383.978571 -203.866667 
L 329.175 -203.866667 
z
" style="stroke: #000000"/>
    </defs>
    <g clip-path="url(#p90b913a2a8)">
     <use xlink:href="#m2887c1b27c" x="0" y="360" style="fill: #2ca02c; stroke: #000000"/>
    </g>
   </g>
   <g id="BrokenBarHCollection_6">
    <defs>
     <path id="m639cc02bb4" d="M 153.803571 -203.866667 
L 153.803571 -250.066667 
L 219.567857 -250.066667 
L 219.567857 -203.866667 
L 153.803571 -203.866667 
z
" style="stroke: #000000"/>
    </defs>
    <g clip-path="url(#p90b913a2a8)">
     <use xlink:href="#m639cc02bb4" x="0" y="360" style="fill: #1f77b4; stroke: #000000"/>
    </g>
   </g>
   <g id="BrokenBarHCollection_7">
    <defs>
     <path id="m6ce82a5efd" d="M 219.567857 -203.866667 
L 219.567857 -250.066667 
L 285.332143 -250.066667 
L 285.332143 -203.866667 
L 219.567857 -203.866667 
z
" style="stroke: #000000"/>
    </defs>
    <g clip-path="url(#p90b913a2a8)">
     <use xlink:href="#m6ce82a5efd" x="0" y="360" style="fill: #1f77b4; stroke: #000000"/>
    </g>
   </g>
   <g id="BrokenBarHCollection_8">
    <defs>
     <path id="mfb7b3fd6ee" d="M 427.821429 -203.866667 
L 427.821429 -250.066667 
L 493.585714 -250.066667 
L 493.585714 -203.866667 
L 427.821429 -203.866667 
z
" style="stroke: #000000"/>
    </defs>
    <g clip-path="url(#p90b913a2a8)">
     <use xlink:href="#mfb7b3fd6ee" x="0" y="360" style="fill: #1f77b4; stroke: #000000"/>
    </g>
   </g>
   <g id="BrokenBarHCollection_9">
    <defs>
     <path id="m6f2d194e54" d="M 581.271429 -203.866667 
L 581.271429 -250.066667 
L 647.035714 -250.066667 
L 647.035714 -203.866667 
L 581.271429 -203.866667 
z
" style="stroke: #000000"/>
    </defs>
    <g clip-path="url(#p90b913a2a8)">
     <use xlink:href="#m6f2d194e54" x="0" y="360" style="fill: #1f77b4; stroke: #000000"/>
    </g>
   </g>
   <g id="BrokenBarHCollection_10">
    <defs>
     <path id="m3ca09ffdc0" d="M 285.332143 -203.866667 
L 285.332143 -250.066667 
L 329.175 -250.066667 
L 329.175 -203.866667 
L 285.332143 -203.866667 
z
" style="stroke: #000000"/>
    </defs>
    <g clip-path="url(#p90b913a2a8)">
     <use xlink:href="#m3ca09ffdc0" x="0" y="360" style="fill: #ff7f0e; stroke: #000000"/>
    </g>
   </g>
   <g id="BrokenBarHCollection_11">
    <defs>
     <path id="m421aa856e0" d="M 383.978571 -203.866667 
L 383.978571 -250.066667 
L 427.821429 -250.066667 
L 427.821429 -203.866667 
L 383.978571 -203.866667 
z
" style="stroke: #000000"/>
    </defs>
    <g clip-path="url(#p90b913a2a8)">
     <use xlink:href="#m421aa856e0" x="0" y="360" style="fill: #ff7f0e; stroke: #000000"/>
    </g>
   </g>
   <g id="BrokenBarHCollection_12">
    <defs>
     <path id="m3989cd9c61" d="M 493.585714 -203.866667 
L 493.585714 -250.066667 
L 537.428571 -250.066667 
L 537.428571 -203.866667 
L 493.585714 -203.866667 
z
" style="stroke: #000000"/>
    </defs>
    <g clip-path="url(#p90b913a2a8)">
     <use xlink:href="#m3989cd9c61" x="0" y="360" style="fill: #ff7f0e; stroke: #000000"/>
    </g>
   </g>
   <g id="BrokenBarHCollection_13">
    <defs>
     <path id="m276ea95463" d="M 537.428571 -203.866667 
L 537.428571 -250.066667 
L 581.271429 -250.066667 
L 581.271429 -203.866667 
L 537.428571 -203.866667 
z
" style="stroke: #000000"/>
    </defs>
    <g clip-path="url(#p90b913a2a8)">
     <use xlink:href="#m276ea95463" x="0" y="360" style="fill: #ff7f0e; stroke: #000000"/>
    </g>
   </g>
   <g id="BrokenBarHCollection_14">
    <defs>
     <path id="m73ec057bd7" d="M 99 -152.533333 
L 99 -198.733333 
L 153.803571 -198.733333 
L 153.803571 -152.533333 
L 99 -152.533333 
z
" style="stroke: #000000"/>
    </defs>
    <g clip-path="url(#p90b913a2a8)">
     <use xlink:href="#m73ec057bd7" x="0" y="360" style="fill: #2ca02c; stroke: #000000"/>
    </g>
   </g>
   <g id="BrokenBarHCollection_15">
    <defs>
     <path id="md995f097a1" d="M 416.860714 -152.533333 
L 416.860714 -198.733333 
L 471.664286 -198.733333 
L 471.664286 -152.533333 
L 416.860714 -152.533333 
z
" style="stroke: #000000"/>
    </defs>
    <g clip-path="url(#p90b913a2a8)">
     <use xlink:href="#md995f097a1" x="0" y="360" style="fill: #2ca02c; stroke: #000000"/>
    </g>
   </g>
   <g id="BrokenBarHCollection_16">
    <defs>
     <path id="mc85445139e" d="M 153.803571 -152.533333 
L 153.803571 -198.733333 
L 219.567857 -198.733333 
L 219.567857 -152.533333 
L 153.803571 -152.533333 
z
" style="stroke: #000000"/>
    </defs>
    <g clip-path="url(#p90b913a2a8)">
     <use xlink:href="#mc85445139e" x="0" y="360" style="fill: #1f77b4; stroke: #000000"/>
    </g>
   </g>
   <g id="BrokenBarHCollection_17">
    <defs>
     <path id="m4b97fa62bc" d="M 219.567857 -152.533333 
L 219.567857 -198.733333 
L 285.332143 -198.733333 
L 285.332143 -152.533333 
L 219.567857 -152.533333 
z
" style="stroke: #000000"/>
    </defs>
    <g clip-path="url(#p90b913a2a8)">
     <use xlink:href="#m4b97fa62bc" x="0" y="360" style="fill: #1f77b4; stroke: #000000"/>
    </g>
   </g>
   <g id="BrokenBarHCollection_18">
    <defs>
     <path id="m3b606d651e" d="M 471.664286 -152.533333 
L 471.664286 -198.733333 
L 537.428571 -198.733333 
L 537.428571 -152.533333 
L 471.664286 -152.533333 
z
" style="stroke: #000000"/>
    </defs>
    <g clip-path="url(#p90b913a2a8)">
     <use xlink:href="#m3b606d651e" x="0" y="360" style="fill: #1f77b4; stroke: #000000"/>
    </g>
   </g>
   <g id="BrokenBarHCollection_19">
    <defs>
     <path id="mbacc68d773" d="M 570.310714 -152.533333 
L 570.310714 -198.733333 
L 636.075 -198.733333 
L 636.075 -152.533333 
L 570.310714 -152.533333 
z
" style="stroke: #000000"/>
    </defs>
    <g clip-path="url(#p90b913a2a8)">
     <use xlink:href="#mbacc68d773" x="0" y="360" style="fill: #1f77b4; stroke: #000000"/>
    </g>
   </g>
   <g id="BrokenBarHCollection_20">
    <defs>
     <path id="me01a60966b" d="M 285.332143 -152.533333 
L 285.332143 -198.733333 
L 329.175 -198.733333 
L 329.175 -152.533333 
L 285.332143 -152.533333 
z
" style="stroke: #000000"/>
    </defs>
    <g clip-path="url(#p90b913a2a8)">
     <use xlink:href="#me01a60966b" x="0" y="360" style="fill: #ff7f0e; stroke: #000000"/>
    </g>
   </g>
   <g id="BrokenBarHCollection_21">
    <defs>
     <path id="m08017fd2bd" d="M 329.175 -152.533333 
L 329.175 -198.733333 
L 373.017857 -198.733333 
L 373.017857 -152.533333 
L 329.175 -152.533333 
z
" style="stroke: #000000"/>
    </defs>
    <g clip-path="url(#p90b913a2a8)">
     <use xlink:href="#m08017fd2bd" x="0" y="360" style="fill: #ff7f0e; stroke: #000000"/>
    </g>
   </g>
   <g id="BrokenBarHCollection_22">
    <defs>
     <path id="m20ac63b8f1" d="M 373.017857 -152.533333 
L 373.017857 -198.733333 
L 416.860714 -198.733333 
L 416.860714 -152.533333 
L 373.017857 -152.533333 
z
" style="stroke: #000000"/>
    </defs>
    <g clip-path="url(#p90b913a2a8)">
     <use xlink:href="#m20ac63b8f1" x="0" y="360" style="fill: #ff7f0e; stroke: #000000"/>
    </g>
   </g>
   <g id="BrokenBarHCollection_23">
    <defs>
     <path id="mab0f2a57c6" d="M 329.175 -101.2 
L 329.175 -147.4 
L 394.939286 -147.4 
L 394.939286 -101.2 
L 329.175 -101.2 
z
" style="stroke: #000000"/>
    </defs>
    <g clip-path="url(#p90b913a2a8)">
     <use xlink:href="#mab0f2a57c6" x="0" y="360" style="fill: #bcbd22; stroke: #000000"/>
    </g>
   </g>
   <g id="BrokenBarHCollection_24">
    <defs>
     <path id="m42527592d0" d="M 416.860714 -101.2 
L 416.860714 -147.4 
L 482.625 -147.4 
L 482.625 -101.2 
L 416.860714 -101.2 
z
" style="stroke: #000000"/>
    </defs>
    <g clip-path="url(#p90b913a2a8)">
     <use xlink:href="#m42527592d0" x="0" y="360" style="fill: #bcbd22; stroke: #000000"/>
    </g>
   </g>
   <g id="BrokenBarHCollection_25">
    <defs>
     <path id="m5d40f2e0a2" d="M 482.625 -101.2 
L 482.625 -147.4 
L 548.389286 -147.4 
L 548.389286 -101.2 
L 482.625 -101.2 
z
" style="stroke: #000000"/>
    </defs>
    <g clip-path="url(#p90b913a2a8)">
     <use xlink:href="#m5d40f2e0a2" x="0" y="360" style="fill: #bcbd22; stroke: #000000"/>
    </g>
   </g>
   <g id="BrokenBarHCollection_26">
    <defs>
     <path id="m97499611a3" d="M 548.389286 -101.2 
L 548.389286 -147.4 
L 614.153571 -147.4 
L 614.153571 -101.2 
L 548.389286 -101.2 
z
" style="stroke: #000000"/>
    </defs>
    <g clip-path="url(#p90b913a2a8)">
     <use xlink:href="#m97499611a3" x="0" y="360" style="fill: #bcbd22; stroke: #000000"/>
    </g>
   </g>
   <g id="BrokenBarHCollection_27">
    <defs>
     <path id="ma80ecf8af3" d="M 614.153571 -101.2 
L 614.153571 -147.4 
L 679.917857 -147.4 
L 679.917857 -101.2 
L 614.153571 -101.2 
z
" style="stroke: #000000"/>
    </defs>
    <g clip-path="url(#p90b913a2a8)">
     <use xlink:href="#ma80ecf8af3" x="0" y="360" style="fill: #bcbd22; stroke: #000000"/>
    </g>
   </g>
   <g id="BrokenBarHCollection_28">
    <defs>
     <path id="m715a0d1064" d="M 219.567857 -49.866667 
L 219.567857 -96.066667 
L 252.45 -96.066667 
L 252.45 -49.866667 
L 219.567857 -49.866667 
z
" style="stroke: #000000"/>
    </defs>
    <g clip-path="url(#p90b913a2a8)">
     <use xlink:href="#m715a0d1064" x="0" y="360" style="fill: #9467bd; stroke: #000000"/>
    </g>
   </g>
   <g id="BrokenBarHCollection_29">
    <defs>
     <path id="md19f149acc" d="M 285.332143 -49.866667 
L 285.332143 -96.066667 
L 318.214286 -96.066667 
L 318.214286 -49.866667 
L 285.332143 -49.866667 
z
" style="stroke: #000000"/>
    </defs>
    <g clip-path="url(#p90b913a2a8)">
     <use xlink:href="#md19f149acc" x="0" y="360" style="fill: #9467bd; stroke: #000000"/>
    </g>
   </g>
   <g id="BrokenBarHCollection_30">
    <defs>
     <path id="me51f87447d" d="M 581.271429 -49.866667 
L 581.271429 -96.066667 
L 614.153571 -96.066667 
L 614.153571 -49.866667 
L 581.271429 -49.866667 
z
" style="stroke: #000000"/>
    </defs>
    <g clip-path="url(#p90b913a2a8)">
     <use xlink:href="#me51f87447d" x="0" y="360" style="fill: #9467bd; stroke: #000000"/>
    </g>
   </g>
   <g id="BrokenBarHCollection_31">
    <defs>
     <path id="mb47cfe57f3" d="M 647.035714 -49.866667 
L 647.035714 -96.066667 
L 679.917857 -96.066667 
L 679.917857 -49.866667 
L 647.035714 -49.866667 
z
" style="stroke: #000000"/>
    </defs>
    <g clip-path="url(#p90b913a2a8)">
     <use xlink:href="#mb47cfe57f3" x="0" y="360" style="fill: #9467bd; stroke: #000000"/>
    </g>
   </g>
   <g id="BrokenBarHCollection_32">
    <defs>
     <path id="m00f98e441b" d="M 416.860714 -49.866667 
L 416.860714 -96.066667 
L 449.742857 -96.066667 
L 449.742857 -49.866667 
L 416.860714 -49.866667 
z
" style="stroke: #000000"/>
    </defs>
    <g clip-path="url(#p90b913a2a8)">
     <use xlink:href="#m00f98e441b" x="0" y="360" style="fill: #008080; stroke: #000000"/>
    </g>
   </g>
   <g id="BrokenBarHCollection_33">
    <defs>
     <path id="mfa5e57835b" d="M 482.625 -49.866667 
L 482.625 -96.066667 
L 515.507143 -96.066667 
L 515.507143 -49.866667 
L 482.625 -49.866667 
z
" style="stroke: #000000"/>
    </defs>
    <g clip-path="url(#p90b913a2a8)">
     <use xlink:href="#mfa5e57835b" x="0" y="360" style="fill: #008080; stroke: #000000"/>
    </g>
   </g>
   <g id="BrokenBarHCollection_34">
    <defs>
     <path id="mf719731312" d="M 515.507143 -49.866667 
L 515.507143 -96.066667 
L 548.389286 -96.066667 
L 548.389286 -49.866667 
L 515.507143 -49.866667 
z
" style="stroke: #000000"/>
    </defs>
    <g clip-path="url(#p90b913a2a8)">
     <use xlink:href="#mf719731312" x="0" y="360" style="fill: #008080; stroke: #000000"/>
    </g>
   </g>
   <g id="BrokenBarHCollection_35">
    <defs>
     <path id="mb9d959a728" d="M 548.389286 -49.866667 
L 548.389286 -96.066667 
L 581.271429 -96.066667 
L 581.271429 -49.866667 
L 548.389286 -49.866667 
z
" style="stroke: #000000"/>
    </defs>
    <g clip-path="url(#p90b913a2a8)">
     <use xlink:href="#mb9d959a728" x="0" y="360" style="fill: #008080; stroke: #000000"/>
    </g>
   </g>
   <g id="BrokenBarHCollection_36">
    <defs>
     <path id="m7f14fd99b3" d="M 614.153571 -49.866667 
L 614.153571 -96.066667 
L 647.035714 -96.066667 
L 647.035714 -49.866667 
L 614.153571 -49.866667 
z
" style="stroke: #000000"/>
    </defs>
    <g clip-path="url(#p90b913a2a8)">
     <use xlink:href="#m7f14fd99b3" x="0" y="360" style="fill: #008080; stroke: #000000"/>
    </g>
   </g>
   <g id="BrokenBarHCollection_37">
    <defs>
     <path id="m8fce42389a" d="M 679.917857 -49.866667 
L 679.917857 -96.066667 
L 712.8 -96.066667 
L 712.8 -49.866667 
L 679.917857 -49.866667 
z
" style="stroke: #000000"/>
    </defs>
    <g clip-path="url(#p90b913a2a8)">
     <use xlink:href="#m8fce42389a" x="0" y="360" style="fill: #008080; stroke: #000000"/>
    </g>
   </g>
   <g id="matplotlib.axis_1">
    <g id="xtick_1">
     <g id="line2d_1">
      <defs>
       <path id="mc342c535a4" d="M 0 0 
L 0 3.5 
" style="stroke: #000000; stroke-width: 0.8"/>
      </defs>
      <g>
       <use xlink:href="#mc342c535a4" x="99" y="320.4" style="stroke: #000000; stroke-width: 0.8"/>
      </g>
     </g>
     <g id="text_1">
      <!-- 0 -->
      <g transform="translate(94.228125 338.797656) scale(0.15 -0.15)">
       <defs>
        <path id="DejaVuSans-30" d="M 2034 4250 
Q 1547 4250 1301 3770 
Q 1056 3291 1056 2328 
Q 1056 1369 1301 889 
Q 1547 409 2034 409 
Q 2525 409 2770 889 
Q 3016 1369 3016 2328 
Q 3016 3291 2770 3770 
Q 2525 4250 2034 4250 
z
M 2034 4750 
Q 2819 4750 3233 4129 
Q 3647 3509 3647 2328 
Q 3647 1150 3233 529 
Q 2819 -91 2034 -91 
Q 1250 -91 836 529 
Q 422 1150 422 2328 
Q 422 3509 836 4129 
Q 1250 4750 2034 4750 
z
" transform="scale(0.015625)"/>
       </defs>
       <use xlink:href="#DejaVuSans-30"/>
      </g>
     </g>
    </g>
    <g id="xtick_2">
     <g id="line2d_2">
      <g>
       <use xlink:href="#mc342c535a4" x="208.607143" y="320.4" style="stroke: #000000; stroke-width: 0.8"/>
      </g>
     </g>
     <g id="text_2">
      <!-- 5 -->
      <g transform="translate(203.835268 338.797656) scale(0.15 -0.15)">
       <defs>
        <path id="DejaVuSans-35" d="M 691 4666 
L 3169 4666 
L 3169 4134 
L 1269 4134 
L 1269 2991 
Q 1406 3038 1543 3061 
Q 1681 3084 1819 3084 
Q 2600 3084 3056 2656 
Q 3513 2228 3513 1497 
Q 3513 744 3044 326 
Q 2575 -91 1722 -91 
Q 1428 -91 1123 -41 
Q 819 9 494 109 
L 494 744 
Q 775 591 1075 516 
Q 1375 441 1709 441 
Q 2250 441 2565 725 
Q 2881 1009 2881 1497 
Q 2881 1984 2565 2268 
Q 2250 2553 1709 2553 
Q 1456 2553 1204 2497 
Q 953 2441 691 2322 
L 691 4666 
z
" transform="scale(0.015625)"/>
       </defs>
       <use xlink:href="#DejaVuSans-35"/>
      </g>
     </g>
    </g>
    <g id="xtick_3">
     <g id="line2d_3">
      <g>
       <use xlink:href="#mc342c535a4" x="318.214286" y="320.4" style="stroke: #000000; stroke-width: 0.8"/>
      </g>
     </g>
     <g id="text_3">
      <!-- 10 -->
      <g transform="translate(308.670536 338.797656) scale(0.15 -0.15)">
       <defs>
        <path id="DejaVuSans-31" d="M 794 531 
L 1825 531 
L 1825 4091 
L 703 3866 
L 703 4441 
L 1819 4666 
L 2450 4666 
L 2450 531 
L 3481 531 
L 3481 0 
L 794 0 
L 794 531 
z
" transform="scale(0.015625)"/>
       </defs>
       <use xlink:href="#DejaVuSans-31"/>
       <use xlink:href="#DejaVuSans-30" x="63.623047"/>
      </g>
     </g>
    </g>
    <g id="xtick_4">
     <g id="line2d_4">
      <g>
       <use xlink:href="#mc342c535a4" x="427.821429" y="320.4" style="stroke: #000000; stroke-width: 0.8"/>
      </g>
     </g>
     <g id="text_4">
      <!-- 15 -->
      <g transform="translate(418.277679 338.797656) scale(0.15 -0.15)">
       <use xlink:href="#DejaVuSans-31"/>
       <use xlink:href="#DejaVuSans-35" x="63.623047"/>
      </g>
     </g>
    </g>
    <g id="xtick_5">
     <g id="line2d_5">
      <g>
       <use xlink:href="#mc342c535a4" x="537.428571" y="320.4" style="stroke: #000000; stroke-width: 0.8"/>
      </g>
     </g>
     <g id="text_5">
      <!-- 20 -->
      <g transform="translate(527.884821 338.797656) scale(0.15 -0.15)">
       <defs>
        <path id="DejaVuSans-32" d="M 1228 531 
L 3431 531 
L 3431 0 
L 469 0 
L 469 531 
Q 828 903 1448 1529 
Q 2069 2156 2228 2338 
Q 2531 2678 2651 2914 
Q 2772 3150 2772 3378 
Q 2772 3750 2511 3984 
Q 2250 4219 1831 4219 
Q 1534 4219 1204 4116 
Q 875 4013 500 3803 
L 500 4441 
Q 881 4594 1212 4672 
Q 1544 4750 1819 4750 
Q 2544 4750 2975 4387 
Q 3406 4025 3406 3419 
Q 3406 3131 3298 2873 
Q 3191 2616 2906 2266 
Q 2828 2175 2409 1742 
Q 1991 1309 1228 531 
z
" transform="scale(0.015625)"/>
       </defs>
       <use xlink:href="#DejaVuSans-32"/>
       <use xlink:href="#DejaVuSans-30" x="63.623047"/>
      </g>
     </g>
    </g>
    <g id="xtick_6">
     <g id="line2d_6">
      <g>
       <use xlink:href="#mc342c535a4" x="647.035714" y="320.4" style="stroke: #000000; stroke-width: 0.8"/>
      </g>
     </g>
     <g id="text_6">
      <!-- 25 -->
      <g transform="translate(637.491964 338.797656) scale(0.15 -0.15)">
       <use xlink:href="#DejaVuSans-32"/>
       <use xlink:href="#DejaVuSans-35" x="63.623047"/>
      </g>
     </g>
    </g>
    <g id="text_7">
     <!-- Time [h] -->
     <g transform="translate(374.560547 357.314844) scale(0.15 -0.15)">
      <defs>
       <path id="DejaVuSans-54" d="M -19 4666 
L 3928 4666 
L 3928 4134 
L 2272 4134 
L 2272 0 
L 1638 0 
L 1638 4134 
L -19 4134 
L -19 4666 
z
" transform="scale(0.015625)"/>
       <path id="DejaVuSans-69" d="M 603 3500 
L 1178 3500 
L 1178 0 
L 603 0 
L 603 3500 
z
M 603 4863 
L 1178 4863 
L 1178 4134 
L 603 4134 
L 603 4863 
z
" transform="scale(0.015625)"/>
       <path id="DejaVuSans-6d" d="M 3328 2828 
Q 3544 3216 3844 3400 
Q 4144 3584 4550 3584 
Q 5097 3584 5394 3201 
Q 5691 2819 5691 2113 
L 5691 0 
L 5113 0 
L 5113 2094 
Q 5113 2597 4934 2840 
Q 4756 3084 4391 3084 
Q 3944 3084 3684 2787 
Q 3425 2491 3425 1978 
L 3425 0 
L 2847 0 
L 2847 2094 
Q 2847 2600 2669 2842 
Q 2491 3084 2119 3084 
Q 1678 3084 1418 2786 
Q 1159 2488 1159 1978 
L 1159 0 
L 581 0 
L 581 3500 
L 1159 3500 
L 1159 2956 
Q 1356 3278 1631 3431 
Q 1906 3584 2284 3584 
Q 2666 3584 2933 3390 
Q 3200 3197 3328 2828 
z
" transform="scale(0.015625)"/>
       <path id="DejaVuSans-65" d="M 3597 1894 
L 3597 1613 
L 953 1613 
Q 991 1019 1311 708 
Q 1631 397 2203 397 
Q 2534 397 2845 478 
Q 3156 559 3463 722 
L 3463 178 
Q 3153 47 2828 -22 
Q 2503 -91 2169 -91 
Q 1331 -91 842 396 
Q 353 884 353 1716 
Q 353 2575 817 3079 
Q 1281 3584 2069 3584 
Q 2775 3584 3186 3129 
Q 3597 2675 3597 1894 
z
M 3022 2063 
Q 3016 2534 2758 2815 
Q 2500 3097 2075 3097 
Q 1594 3097 1305 2825 
Q 1016 2553 972 2059 
L 3022 2063 
z
" transform="scale(0.015625)"/>
       <path id="DejaVuSans-20" transform="scale(0.015625)"/>
       <path id="DejaVuSans-5b" d="M 550 4863 
L 1875 4863 
L 1875 4416 
L 1125 4416 
L 1125 -397 
L 1875 -397 
L 1875 -844 
L 550 -844 
L 550 4863 
z
" transform="scale(0.015625)"/>
       <path id="DejaVuSans-68" d="M 3513 2113 
L 3513 0 
L 2938 0 
L 2938 2094 
Q 2938 2591 2744 2837 
Q 2550 3084 2163 3084 
Q 1697 3084 1428 2787 
Q 1159 2491 1159 1978 
L 1159 0 
L 581 0 
L 581 4863 
L 1159 4863 
L 1159 2956 
Q 1366 3272 1645 3428 
Q 1925 3584 2291 3584 
Q 2894 3584 3203 3211 
Q 3513 2838 3513 2113 
z
" transform="scale(0.015625)"/>
       <path id="DejaVuSans-5d" d="M 1947 4863 
L 1947 -844 
L 622 -844 
L 622 -397 
L 1369 -397 
L 1369 4416 
L 622 4416 
L 622 4863 
L 1947 4863 
z
" transform="scale(0.015625)"/>
      </defs>
      <use xlink:href="#DejaVuSans-54"/>
      <use xlink:href="#DejaVuSans-69" x="57.958984"/>
      <use xlink:href="#DejaVuSans-6d" x="85.742188"/>
      <use xlink:href="#DejaVuSans-65" x="183.154297"/>
      <use xlink:href="#DejaVuSans-20" x="244.677734"/>
      <use xlink:href="#DejaVuSans-5b" x="276.464844"/>
      <use xlink:href="#DejaVuSans-68" x="315.478516"/>
      <use xlink:href="#DejaVuSans-5d" x="378.857422"/>
     </g>
    </g>
   </g>
   <g id="matplotlib.axis_2">
    <g id="ytick_1">
     <g id="line2d_7">
      <defs>
       <path id="m0a385e2de1" d="M 0 0 
L -3.5 0 
" style="stroke: #000000; stroke-width: 0.8"/>
      </defs>
      <g>
       <use xlink:href="#m0a385e2de1" x="99" y="284.466667" style="stroke: #000000; stroke-width: 0.8"/>
      </g>
     </g>
     <g id="text_8">
      <!-- Pack -->
      <g transform="translate(57.504688 290.165495) scale(0.15 -0.15)">
       <defs>
        <path id="DejaVuSans-50" d="M 1259 4147 
L 1259 2394 
L 2053 2394 
Q 2494 2394 2734 2622 
Q 2975 2850 2975 3272 
Q 2975 3691 2734 3919 
Q 2494 4147 2053 4147 
L 1259 4147 
z
M 628 4666 
L 2053 4666 
Q 2838 4666 3239 4311 
Q 3641 3956 3641 3272 
Q 3641 2581 3239 2228 
Q 2838 1875 2053 1875 
L 1259 1875 
L 1259 0 
L 628 0 
L 628 4666 
z
" transform="scale(0.015625)"/>
        <path id="DejaVuSans-61" d="M 2194 1759 
Q 1497 1759 1228 1600 
Q 959 1441 959 1056 
Q 959 750 1161 570 
Q 1363 391 1709 391 
Q 2188 391 2477 730 
Q 2766 1069 2766 1631 
L 2766 1759 
L 2194 1759 
z
M 3341 1997 
L 3341 0 
L 2766 0 
L 2766 531 
Q 2569 213 2275 61 
Q 1981 -91 1556 -91 
Q 1019 -91 701 211 
Q 384 513 384 1019 
Q 384 1609 779 1909 
Q 1175 2209 1959 2209 
L 2766 2209 
L 2766 2266 
Q 2766 2663 2505 2880 
Q 2244 3097 1772 3097 
Q 1472 3097 1187 3025 
Q 903 2953 641 2809 
L 641 3341 
Q 956 3463 1253 3523 
Q 1550 3584 1831 3584 
Q 2591 3584 2966 3190 
Q 3341 2797 3341 1997 
z
" transform="scale(0.015625)"/>
        <path id="DejaVuSans-63" d="M 3122 3366 
L 3122 2828 
Q 2878 2963 2633 3030 
Q 2388 3097 2138 3097 
Q 1578 3097 1268 2742 
Q 959 2388 959 1747 
Q 959 1106 1268 751 
Q 1578 397 2138 397 
Q 2388 397 2633 464 
Q 2878 531 3122 666 
L 3122 134 
Q 2881 22 2623 -34 
Q 2366 -91 2075 -91 
Q 1284 -91 818 406 
Q 353 903 353 1747 
Q 353 2603 823 3093 
Q 1294 3584 2113 3584 
Q 2378 3584 2631 3529 
Q 2884 3475 3122 3366 
z
" transform="scale(0.015625)"/>
        <path id="DejaVuSans-6b" d="M 581 4863 
L 1159 4863 
L 1159 1991 
L 2875 3500 
L 3609 3500 
L 1753 1863 
L 3688 0 
L 2938 0 
L 1159 1709 
L 1159 0 
L 581 0 
L 581 4863 
z
" transform="scale(0.015625)"/>
       </defs>
       <use xlink:href="#DejaVuSans-50"/>
       <use xlink:href="#DejaVuSans-61" x="55.802734"/>
       <use xlink:href="#DejaVuSans-63" x="117.082031"/>
       <use xlink:href="#DejaVuSans-6b" x="172.0625"/>
      </g>
     </g>
    </g>
    <g id="ytick_2">
     <g id="line2d_8">
      <g>
       <use xlink:href="#m0a385e2de1" x="99" y="233.133333" style="stroke: #000000; stroke-width: 0.8"/>
      </g>
     </g>
     <g id="text_9">
      <!-- Sep -->
      <g transform="translate(63.725 238.832161) scale(0.15 -0.15)">
       <defs>
        <path id="DejaVuSans-53" d="M 3425 4513 
L 3425 3897 
Q 3066 4069 2747 4153 
Q 2428 4238 2131 4238 
Q 1616 4238 1336 4038 
Q 1056 3838 1056 3469 
Q 1056 3159 1242 3001 
Q 1428 2844 1947 2747 
L 2328 2669 
Q 3034 2534 3370 2195 
Q 3706 1856 3706 1288 
Q 3706 609 3251 259 
Q 2797 -91 1919 -91 
Q 1588 -91 1214 -16 
Q 841 59 441 206 
L 441 856 
Q 825 641 1194 531 
Q 1563 422 1919 422 
Q 2459 422 2753 634 
Q 3047 847 3047 1241 
Q 3047 1584 2836 1778 
Q 2625 1972 2144 2069 
L 1759 2144 
Q 1053 2284 737 2584 
Q 422 2884 422 3419 
Q 422 4038 858 4394 
Q 1294 4750 2059 4750 
Q 2388 4750 2728 4690 
Q 3069 4631 3425 4513 
z
" transform="scale(0.015625)"/>
        <path id="DejaVuSans-70" d="M 1159 525 
L 1159 -1331 
L 581 -1331 
L 581 3500 
L 1159 3500 
L 1159 2969 
Q 1341 3281 1617 3432 
Q 1894 3584 2278 3584 
Q 2916 3584 3314 3078 
Q 3713 2572 3713 1747 
Q 3713 922 3314 415 
Q 2916 -91 2278 -91 
Q 1894 -91 1617 61 
Q 1341 213 1159 525 
z
M 3116 1747 
Q 3116 2381 2855 2742 
Q 2594 3103 2138 3103 
Q 1681 3103 1420 2742 
Q 1159 2381 1159 1747 
Q 1159 1113 1420 752 
Q 1681 391 2138 391 
Q 2594 391 2855 752 
Q 3116 1113 3116 1747 
z
" transform="scale(0.015625)"/>
       </defs>
       <use xlink:href="#DejaVuSans-53"/>
       <use xlink:href="#DejaVuSans-65" x="63.476562"/>
       <use xlink:href="#DejaVuSans-70" x="125"/>
      </g>
     </g>
    </g>
    <g id="ytick_3">
     <g id="line2d_9">
      <g>
       <use xlink:href="#m0a385e2de1" x="99" y="181.8" style="stroke: #000000; stroke-width: 0.8"/>
      </g>
     </g>
     <g id="text_10">
      <!-- Rs -->
      <g transform="translate(73.763281 187.498828) scale(0.15 -0.15)">
       <defs>
        <path id="DejaVuSans-52" d="M 2841 2188 
Q 3044 2119 3236 1894 
Q 3428 1669 3622 1275 
L 4263 0 
L 3584 0 
L 2988 1197 
Q 2756 1666 2539 1819 
Q 2322 1972 1947 1972 
L 1259 1972 
L 1259 0 
L 628 0 
L 628 4666 
L 2053 4666 
Q 2853 4666 3247 4331 
Q 3641 3997 3641 3322 
Q 3641 2881 3436 2590 
Q 3231 2300 2841 2188 
z
M 1259 4147 
L 1259 2491 
L 2053 2491 
Q 2509 2491 2742 2702 
Q 2975 2913 2975 3322 
Q 2975 3731 2742 3939 
Q 2509 4147 2053 4147 
L 1259 4147 
z
" transform="scale(0.015625)"/>
        <path id="DejaVuSans-73" d="M 2834 3397 
L 2834 2853 
Q 2591 2978 2328 3040 
Q 2066 3103 1784 3103 
Q 1356 3103 1142 2972 
Q 928 2841 928 2578 
Q 928 2378 1081 2264 
Q 1234 2150 1697 2047 
L 1894 2003 
Q 2506 1872 2764 1633 
Q 3022 1394 3022 966 
Q 3022 478 2636 193 
Q 2250 -91 1575 -91 
Q 1294 -91 989 -36 
Q 684 19 347 128 
L 347 722 
Q 666 556 975 473 
Q 1284 391 1588 391 
Q 1994 391 2212 530 
Q 2431 669 2431 922 
Q 2431 1156 2273 1281 
Q 2116 1406 1581 1522 
L 1381 1569 
Q 847 1681 609 1914 
Q 372 2147 372 2553 
Q 372 3047 722 3315 
Q 1072 3584 1716 3584 
Q 2034 3584 2315 3537 
Q 2597 3491 2834 3397 
z
" transform="scale(0.015625)"/>
       </defs>
       <use xlink:href="#DejaVuSans-52"/>
       <use xlink:href="#DejaVuSans-73" x="69.482422"/>
      </g>
     </g>
    </g>
    <g id="ytick_4">
     <g id="line2d_10">
      <g>
       <use xlink:href="#m0a385e2de1" x="99" y="130.466667" style="stroke: #000000; stroke-width: 0.8"/>
      </g>
     </g>
     <g id="text_11">
      <!-- Rl -->
      <g transform="translate(77.410156 136.165495) scale(0.15 -0.15)">
       <defs>
        <path id="DejaVuSans-6c" d="M 603 4863 
L 1178 4863 
L 1178 0 
L 603 0 
L 603 4863 
z
" transform="scale(0.015625)"/>
       </defs>
       <use xlink:href="#DejaVuSans-52"/>
       <use xlink:href="#DejaVuSans-6c" x="69.482422"/>
      </g>
     </g>
    </g>
    <g id="ytick_5">
     <g id="line2d_11">
      <g>
       <use xlink:href="#m0a385e2de1" x="99" y="79.133333" style="stroke: #000000; stroke-width: 0.8"/>
      </g>
     </g>
     <g id="text_12">
      <!-- Mix -->
      <g transform="translate(66.0125 84.832161) scale(0.15 -0.15)">
       <defs>
        <path id="DejaVuSans-4d" d="M 628 4666 
L 1569 4666 
L 2759 1491 
L 3956 4666 
L 4897 4666 
L 4897 0 
L 4281 0 
L 4281 4097 
L 3078 897 
L 2444 897 
L 1241 4097 
L 1241 0 
L 628 0 
L 628 4666 
z
" transform="scale(0.015625)"/>
        <path id="DejaVuSans-78" d="M 3513 3500 
L 2247 1797 
L 3578 0 
L 2900 0 
L 1881 1375 
L 863 0 
L 184 0 
L 1544 1831 
L 300 3500 
L 978 3500 
L 1906 2253 
L 2834 3500 
L 3513 3500 
z
" transform="scale(0.015625)"/>
       </defs>
       <use xlink:href="#DejaVuSans-4d"/>
       <use xlink:href="#DejaVuSans-69" x="86.279297"/>
       <use xlink:href="#DejaVuSans-78" x="114.0625"/>
      </g>
     </g>
    </g>
    <g id="text_13">
     <!-- Units -->
     <g transform="translate(50.385156 200.973047) rotate(-90) scale(0.15 -0.15)">
      <defs>
       <path id="DejaVuSans-55" d="M 556 4666 
L 1191 4666 
L 1191 1831 
Q 1191 1081 1462 751 
Q 1734 422 2344 422 
Q 2950 422 3222 751 
Q 3494 1081 3494 1831 
L 3494 4666 
L 4128 4666 
L 4128 1753 
Q 4128 841 3676 375 
Q 3225 -91 2344 -91 
Q 1459 -91 1007 375 
Q 556 841 556 1753 
L 556 4666 
z
" transform="scale(0.015625)"/>
       <path id="DejaVuSans-6e" d="M 3513 2113 
L 3513 0 
L 2938 0 
L 2938 2094 
Q 2938 2591 2744 2837 
Q 2550 3084 2163 3084 
Q 1697 3084 1428 2787 
Q 1159 2491 1159 1978 
L 1159 0 
L 581 0 
L 581 3500 
L 1159 3500 
L 1159 2956 
Q 1366 3272 1645 3428 
Q 1925 3584 2291 3584 
Q 2894 3584 3203 3211 
Q 3513 2838 3513 2113 
z
" transform="scale(0.015625)"/>
       <path id="DejaVuSans-74" d="M 1172 4494 
L 1172 3500 
L 2356 3500 
L 2356 3053 
L 1172 3053 
L 1172 1153 
Q 1172 725 1289 603 
Q 1406 481 1766 481 
L 2356 481 
L 2356 0 
L 1766 0 
Q 1100 0 847 248 
Q 594 497 594 1153 
L 594 3053 
L 172 3053 
L 172 3500 
L 594 3500 
L 594 4494 
L 1172 4494 
z
" transform="scale(0.015625)"/>
      </defs>
      <use xlink:href="#DejaVuSans-55"/>
      <use xlink:href="#DejaVuSans-6e" x="73.193359"/>
      <use xlink:href="#DejaVuSans-69" x="136.572266"/>
      <use xlink:href="#DejaVuSans-74" x="164.355469"/>
      <use xlink:href="#DejaVuSans-73" x="203.564453"/>
     </g>
    </g>
   </g>
   <g id="patch_3">
    <path d="M 99 320.4 
L 99 43.2 
" style="fill: none; stroke: #000000; stroke-width: 0.8; stroke-linejoin: miter; stroke-linecap: square"/>
   </g>
   <g id="patch_4">
    <path d="M 712.8 320.4 
L 712.8 43.2 
" style="fill: none; stroke: #000000; stroke-width: 0.8; stroke-linejoin: miter; stroke-linecap: square"/>
   </g>
   <g id="patch_5">
    <path d="M 99 320.4 
L 712.8 320.4 
" style="fill: none; stroke: #000000; stroke-width: 0.8; stroke-linejoin: miter; stroke-linecap: square"/>
   </g>
   <g id="patch_6">
    <path d="M 99 43.2 
L 712.8 43.2 
" style="fill: none; stroke: #000000; stroke-width: 0.8; stroke-linejoin: miter; stroke-linecap: square"/>
   </g>
   <g id="text_14">
    <!-- 1.25 -->
    <g transform="translate(109.702567 81.7) scale(0.15 -0.15)">
     <defs>
      <path id="DejaVuSans-2e" d="M 684 794 
L 1344 794 
L 1344 0 
L 684 0 
L 684 794 
z
" transform="scale(0.015625)"/>
     </defs>
     <use xlink:href="#DejaVuSans-31"/>
     <use xlink:href="#DejaVuSans-2e" x="63.623047"/>
     <use xlink:href="#DejaVuSans-32" x="95.410156"/>
     <use xlink:href="#DejaVuSans-35" x="159.033203"/>
    </g>
   </g>
   <g id="text_15">
    <!-- 2.00 -->
    <g transform="translate(142.58471 81.7) scale(0.15 -0.15)">
     <use xlink:href="#DejaVuSans-32"/>
     <use xlink:href="#DejaVuSans-2e" x="63.623047"/>
     <use xlink:href="#DejaVuSans-30" x="95.410156"/>
     <use xlink:href="#DejaVuSans-30" x="159.033203"/>
    </g>
   </g>
   <g id="text_16">
    <!-- 1.75 -->
    <g transform="translate(427.563281 81.7) scale(0.15 -0.15)">
     <defs>
      <path id="DejaVuSans-37" d="M 525 4666 
L 3525 4666 
L 3525 4397 
L 1831 0 
L 1172 0 
L 2766 4134 
L 525 4134 
L 525 4666 
z
" transform="scale(0.015625)"/>
     </defs>
     <use xlink:href="#DejaVuSans-31"/>
     <use xlink:href="#DejaVuSans-2e" x="63.623047"/>
     <use xlink:href="#DejaVuSans-37" x="95.410156"/>
     <use xlink:href="#DejaVuSans-35" x="159.033203"/>
    </g>
   </g>
   <g id="text_17">
    <!-- 1.50 -->
    <g transform="translate(109.702567 133.033333) scale(0.15 -0.15)">
     <use xlink:href="#DejaVuSans-31"/>
     <use xlink:href="#DejaVuSans-2e" x="63.623047"/>
     <use xlink:href="#DejaVuSans-35" x="95.410156"/>
     <use xlink:href="#DejaVuSans-30" x="159.033203"/>
    </g>
   </g>
   <g id="text_18">
    <!-- 1.50 -->
    <g transform="translate(339.877567 133.033333) scale(0.15 -0.15)">
     <use xlink:href="#DejaVuSans-31"/>
     <use xlink:href="#DejaVuSans-2e" x="63.623047"/>
     <use xlink:href="#DejaVuSans-35" x="95.410156"/>
     <use xlink:href="#DejaVuSans-30" x="159.033203"/>
    </g>
   </g>
   <g id="text_19">
    <!-- 1.50 -->
    <g transform="translate(169.986496 133.033333) scale(0.15 -0.15)">
     <use xlink:href="#DejaVuSans-31"/>
     <use xlink:href="#DejaVuSans-2e" x="63.623047"/>
     <use xlink:href="#DejaVuSans-35" x="95.410156"/>
     <use xlink:href="#DejaVuSans-30" x="159.033203"/>
    </g>
   </g>
   <g id="text_20">
    <!-- 1.50 -->
    <g transform="translate(235.750781 133.033333) scale(0.15 -0.15)">
     <use xlink:href="#DejaVuSans-31"/>
     <use xlink:href="#DejaVuSans-2e" x="63.623047"/>
     <use xlink:href="#DejaVuSans-35" x="95.410156"/>
     <use xlink:href="#DejaVuSans-30" x="159.033203"/>
    </g>
   </g>
   <g id="text_21">
    <!-- 1.50 -->
    <g transform="translate(444.004353 133.033333) scale(0.15 -0.15)">
     <use xlink:href="#DejaVuSans-31"/>
     <use xlink:href="#DejaVuSans-2e" x="63.623047"/>
     <use xlink:href="#DejaVuSans-35" x="95.410156"/>
     <use xlink:href="#DejaVuSans-30" x="159.033203"/>
    </g>
   </g>
   <g id="text_22">
    <!-- 1.50 -->
    <g transform="translate(597.454353 133.033333) scale(0.15 -0.15)">
     <use xlink:href="#DejaVuSans-31"/>
     <use xlink:href="#DejaVuSans-2e" x="63.623047"/>
     <use xlink:href="#DejaVuSans-35" x="95.410156"/>
     <use xlink:href="#DejaVuSans-30" x="159.033203"/>
    </g>
   </g>
   <g id="text_23">
    <!-- 1.50 -->
    <g transform="translate(290.554353 133.033333) scale(0.15 -0.15)">
     <use xlink:href="#DejaVuSans-31"/>
     <use xlink:href="#DejaVuSans-2e" x="63.623047"/>
     <use xlink:href="#DejaVuSans-35" x="95.410156"/>
     <use xlink:href="#DejaVuSans-30" x="159.033203"/>
    </g>
   </g>
   <g id="text_24">
    <!-- 1.50 -->
    <g transform="translate(389.200781 133.033333) scale(0.15 -0.15)">
     <use xlink:href="#DejaVuSans-31"/>
     <use xlink:href="#DejaVuSans-2e" x="63.623047"/>
     <use xlink:href="#DejaVuSans-35" x="95.410156"/>
     <use xlink:href="#DejaVuSans-30" x="159.033203"/>
    </g>
   </g>
   <g id="text_25">
    <!-- 1.50 -->
    <g transform="translate(498.807924 133.033333) scale(0.15 -0.15)">
     <use xlink:href="#DejaVuSans-31"/>
     <use xlink:href="#DejaVuSans-2e" x="63.623047"/>
     <use xlink:href="#DejaVuSans-35" x="95.410156"/>
     <use xlink:href="#DejaVuSans-30" x="159.033203"/>
    </g>
   </g>
   <g id="text_26">
    <!-- 1.50 -->
    <g transform="translate(542.650781 133.033333) scale(0.15 -0.15)">
     <use xlink:href="#DejaVuSans-31"/>
     <use xlink:href="#DejaVuSans-2e" x="63.623047"/>
     <use xlink:href="#DejaVuSans-35" x="95.410156"/>
     <use xlink:href="#DejaVuSans-30" x="159.033203"/>
    </g>
   </g>
   <g id="text_27">
    <!-- 1.00 -->
    <g transform="translate(109.702567 184.366667) scale(0.15 -0.15)">
     <use xlink:href="#DejaVuSans-31"/>
     <use xlink:href="#DejaVuSans-2e" x="63.623047"/>
     <use xlink:href="#DejaVuSans-30" x="95.410156"/>
     <use xlink:href="#DejaVuSans-30" x="159.033203"/>
    </g>
   </g>
   <g id="text_28">
    <!-- 1.00 -->
    <g transform="translate(427.563281 184.366667) scale(0.15 -0.15)">
     <use xlink:href="#DejaVuSans-31"/>
     <use xlink:href="#DejaVuSans-2e" x="63.623047"/>
     <use xlink:href="#DejaVuSans-30" x="95.410156"/>
     <use xlink:href="#DejaVuSans-30" x="159.033203"/>
    </g>
   </g>
   <g id="text_29">
    <!-- 1.00 -->
    <g transform="translate(169.986495 184.366667) scale(0.15 -0.15)">
     <use xlink:href="#DejaVuSans-31"/>
     <use xlink:href="#DejaVuSans-2e" x="63.623047"/>
     <use xlink:href="#DejaVuSans-30" x="95.410156"/>
     <use xlink:href="#DejaVuSans-30" x="159.033203"/>
    </g>
   </g>
   <g id="text_30">
    <!-- 1.00 -->
    <g transform="translate(235.750781 184.366667) scale(0.15 -0.15)">
     <use xlink:href="#DejaVuSans-31"/>
     <use xlink:href="#DejaVuSans-2e" x="63.623047"/>
     <use xlink:href="#DejaVuSans-30" x="95.410156"/>
     <use xlink:href="#DejaVuSans-30" x="159.033203"/>
    </g>
   </g>
   <g id="text_31">
    <!-- 1.00 -->
    <g transform="translate(487.84721 184.366667) scale(0.15 -0.15)">
     <use xlink:href="#DejaVuSans-31"/>
     <use xlink:href="#DejaVuSans-2e" x="63.623047"/>
     <use xlink:href="#DejaVuSans-30" x="95.410156"/>
     <use xlink:href="#DejaVuSans-30" x="159.033203"/>
    </g>
   </g>
   <g id="text_32">
    <!-- 1.00 -->
    <g transform="translate(586.493638 184.366667) scale(0.15 -0.15)">
     <use xlink:href="#DejaVuSans-31"/>
     <use xlink:href="#DejaVuSans-2e" x="63.623047"/>
     <use xlink:href="#DejaVuSans-30" x="95.410156"/>
     <use xlink:href="#DejaVuSans-30" x="159.033203"/>
    </g>
   </g>
   <g id="text_33">
    <!-- 1.00 -->
    <g transform="translate(290.554353 184.366667) scale(0.15 -0.15)">
     <use xlink:href="#DejaVuSans-31"/>
     <use xlink:href="#DejaVuSans-2e" x="63.623047"/>
     <use xlink:href="#DejaVuSans-30" x="95.410156"/>
     <use xlink:href="#DejaVuSans-30" x="159.033203"/>
    </g>
   </g>
   <g id="text_34">
    <!-- 1.00 -->
    <g transform="translate(334.39721 184.366667) scale(0.15 -0.15)">
     <use xlink:href="#DejaVuSans-31"/>
     <use xlink:href="#DejaVuSans-2e" x="63.623047"/>
     <use xlink:href="#DejaVuSans-30" x="95.410156"/>
     <use xlink:href="#DejaVuSans-30" x="159.033203"/>
    </g>
   </g>
   <g id="text_35">
    <!-- 1.00 -->
    <g transform="translate(378.240067 184.366667) scale(0.15 -0.15)">
     <use xlink:href="#DejaVuSans-31"/>
     <use xlink:href="#DejaVuSans-2e" x="63.623047"/>
     <use xlink:href="#DejaVuSans-30" x="95.410156"/>
     <use xlink:href="#DejaVuSans-30" x="159.033203"/>
    </g>
   </g>
   <g id="text_36">
    <!-- 2.00 -->
    <g transform="translate(345.357924 235.7) scale(0.15 -0.15)">
     <use xlink:href="#DejaVuSans-32"/>
     <use xlink:href="#DejaVuSans-2e" x="63.623047"/>
     <use xlink:href="#DejaVuSans-30" x="95.410156"/>
     <use xlink:href="#DejaVuSans-30" x="159.033203"/>
    </g>
   </g>
   <g id="text_37">
    <!-- 2.00 -->
    <g transform="translate(433.043638 235.7) scale(0.15 -0.15)">
     <use xlink:href="#DejaVuSans-32"/>
     <use xlink:href="#DejaVuSans-2e" x="63.623047"/>
     <use xlink:href="#DejaVuSans-30" x="95.410156"/>
     <use xlink:href="#DejaVuSans-30" x="159.033203"/>
    </g>
   </g>
   <g id="text_38">
    <!-- 2.00 -->
    <g transform="translate(498.807924 235.7) scale(0.15 -0.15)">
     <use xlink:href="#DejaVuSans-32"/>
     <use xlink:href="#DejaVuSans-2e" x="63.623047"/>
     <use xlink:href="#DejaVuSans-30" x="95.410156"/>
     <use xlink:href="#DejaVuSans-30" x="159.033203"/>
    </g>
   </g>
   <g id="text_39">
    <!-- 1.50 -->
    <g transform="translate(564.57221 235.7) scale(0.15 -0.15)">
     <use xlink:href="#DejaVuSans-31"/>
     <use xlink:href="#DejaVuSans-2e" x="63.623047"/>
     <use xlink:href="#DejaVuSans-35" x="95.410156"/>
     <use xlink:href="#DejaVuSans-30" x="159.033203"/>
    </g>
   </g>
   <g id="text_40">
    <!-- 1.50 -->
    <g transform="translate(630.336496 235.7) scale(0.15 -0.15)">
     <use xlink:href="#DejaVuSans-31"/>
     <use xlink:href="#DejaVuSans-2e" x="63.623047"/>
     <use xlink:href="#DejaVuSans-35" x="95.410156"/>
     <use xlink:href="#DejaVuSans-30" x="159.033203"/>
    </g>
   </g>
   <g id="text_41">
    <!-- 1.00 -->
    <g transform="translate(219.30971 287.033333) scale(0.15 -0.15)">
     <use xlink:href="#DejaVuSans-31"/>
     <use xlink:href="#DejaVuSans-2e" x="63.623047"/>
     <use xlink:href="#DejaVuSans-30" x="95.410156"/>
     <use xlink:href="#DejaVuSans-30" x="159.033203"/>
    </g>
   </g>
   <g id="text_42">
    <!-- 1.00 -->
    <g transform="translate(285.073996 287.033333) scale(0.15 -0.15)">
     <use xlink:href="#DejaVuSans-31"/>
     <use xlink:href="#DejaVuSans-2e" x="63.623047"/>
     <use xlink:href="#DejaVuSans-30" x="95.410156"/>
     <use xlink:href="#DejaVuSans-30" x="159.033203"/>
    </g>
   </g>
   <g id="text_43">
    <!-- 1.00 -->
    <g transform="translate(581.013281 287.033333) scale(0.15 -0.15)">
     <use xlink:href="#DejaVuSans-31"/>
     <use xlink:href="#DejaVuSans-2e" x="63.623047"/>
     <use xlink:href="#DejaVuSans-30" x="95.410156"/>
     <use xlink:href="#DejaVuSans-30" x="159.033203"/>
    </g>
   </g>
   <g id="text_44">
    <!-- 1.00 -->
    <g transform="translate(646.777567 287.033333) scale(0.15 -0.15)">
     <use xlink:href="#DejaVuSans-31"/>
     <use xlink:href="#DejaVuSans-2e" x="63.623047"/>
     <use xlink:href="#DejaVuSans-30" x="95.410156"/>
     <use xlink:href="#DejaVuSans-30" x="159.033203"/>
    </g>
   </g>
   <g id="text_45">
    <!-- 1.00 -->
    <g transform="translate(416.602567 287.033333) scale(0.15 -0.15)">
     <use xlink:href="#DejaVuSans-31"/>
     <use xlink:href="#DejaVuSans-2e" x="63.623047"/>
     <use xlink:href="#DejaVuSans-30" x="95.410156"/>
     <use xlink:href="#DejaVuSans-30" x="159.033203"/>
    </g>
   </g>
   <g id="text_46">
    <!-- 0.40 -->
    <g transform="translate(482.366853 287.033333) scale(0.15 -0.15)">
     <defs>
      <path id="DejaVuSans-34" d="M 2419 4116 
L 825 1625 
L 2419 1625 
L 2419 4116 
z
M 2253 4666 
L 3047 4666 
L 3047 1625 
L 3713 1625 
L 3713 1100 
L 3047 1100 
L 3047 0 
L 2419 0 
L 2419 1100 
L 313 1100 
L 313 1709 
L 2253 4666 
z
" transform="scale(0.015625)"/>
     </defs>
     <use xlink:href="#DejaVuSans-30"/>
     <use xlink:href="#DejaVuSans-2e" x="63.623047"/>
     <use xlink:href="#DejaVuSans-34" x="95.410156"/>
     <use xlink:href="#DejaVuSans-30" x="159.033203"/>
    </g>
   </g>
   <g id="text_47">
    <!-- 1.00 -->
    <g transform="translate(515.248996 287.033333) scale(0.15 -0.15)">
     <use xlink:href="#DejaVuSans-31"/>
     <use xlink:href="#DejaVuSans-2e" x="63.623047"/>
     <use xlink:href="#DejaVuSans-30" x="95.410156"/>
     <use xlink:href="#DejaVuSans-30" x="159.033203"/>
    </g>
   </g>
   <g id="text_48">
    <!-- 1.00 -->
    <g transform="translate(548.131138 287.033333) scale(0.15 -0.15)">
     <use xlink:href="#DejaVuSans-31"/>
     <use xlink:href="#DejaVuSans-2e" x="63.623047"/>
     <use xlink:href="#DejaVuSans-30" x="95.410156"/>
     <use xlink:href="#DejaVuSans-30" x="159.033203"/>
    </g>
   </g>
   <g id="text_49">
    <!-- 1.00 -->
    <g transform="translate(613.895424 287.033333) scale(0.15 -0.15)">
     <use xlink:href="#DejaVuSans-31"/>
     <use xlink:href="#DejaVuSans-2e" x="63.623047"/>
     <use xlink:href="#DejaVuSans-30" x="95.410156"/>
     <use xlink:href="#DejaVuSans-30" x="159.033203"/>
    </g>
   </g>
   <g id="text_50">
    <!-- 1.00 -->
    <g transform="translate(679.65971 287.033333) scale(0.15 -0.15)">
     <use xlink:href="#DejaVuSans-31"/>
     <use xlink:href="#DejaVuSans-2e" x="63.623047"/>
     <use xlink:href="#DejaVuSans-30" x="95.410156"/>
     <use xlink:href="#DejaVuSans-30" x="159.033203"/>
    </g>
   </g>
   <g id="legend_1">
    <g id="patch_7">
     <path d="M 644.440625 153.946875 
L 705.8 153.946875 
Q 707.8 153.946875 707.8 151.946875 
L 707.8 50.2 
Q 707.8 48.2 705.8 48.2 
L 644.440625 48.2 
Q 642.440625 48.2 642.440625 50.2 
L 642.440625 151.946875 
Q 642.440625 153.946875 644.440625 153.946875 
z
" style="fill: #ffffff; opacity: 0.8; stroke: #cccccc; stroke-linejoin: miter"/>
    </g>
    <g id="patch_8">
     <path d="M 646.440625 59.798437 
L 666.440625 59.798437 
L 666.440625 52.798437 
L 646.440625 52.798437 
z
" style="fill: #d62728; stroke: #000000; stroke-linejoin: miter"/>
    </g>
    <g id="text_51">
     <!-- Mix -->
     <g transform="translate(674.440625 59.798437) scale(0.1 -0.1)">
      <use xlink:href="#DejaVuSans-4d"/>
      <use xlink:href="#DejaVuSans-69" x="86.279297"/>
      <use xlink:href="#DejaVuSans-78" x="114.0625"/>
     </g>
    </g>
    <g id="patch_9">
     <path d="M 646.440625 74.476562 
L 666.440625 74.476562 
L 666.440625 67.476562 
L 646.440625 67.476562 
z
" style="fill: #2ca02c; stroke: #000000; stroke-linejoin: miter"/>
    </g>
    <g id="text_52">
     <!-- R1 -->
     <g transform="translate(674.440625 74.476562) scale(0.1 -0.1)">
      <use xlink:href="#DejaVuSans-52"/>
      <use xlink:href="#DejaVuSans-31" x="69.482422"/>
     </g>
    </g>
    <g id="patch_10">
     <path d="M 646.440625 89.154687 
L 666.440625 89.154687 
L 666.440625 82.154687 
L 646.440625 82.154687 
z
" style="fill: #1f77b4; stroke: #000000; stroke-linejoin: miter"/>
    </g>
    <g id="text_53">
     <!-- R2 -->
     <g transform="translate(674.440625 89.154687) scale(0.1 -0.1)">
      <use xlink:href="#DejaVuSans-52"/>
      <use xlink:href="#DejaVuSans-32" x="69.482422"/>
     </g>
    </g>
    <g id="patch_11">
     <path d="M 646.440625 103.832812 
L 666.440625 103.832812 
L 666.440625 96.832812 
L 646.440625 96.832812 
z
" style="fill: #ff7f0e; stroke: #000000; stroke-linejoin: miter"/>
    </g>
    <g id="text_54">
     <!-- R3 -->
     <g transform="translate(674.440625 103.832812) scale(0.1 -0.1)">
      <defs>
       <path id="DejaVuSans-33" d="M 2597 2516 
Q 3050 2419 3304 2112 
Q 3559 1806 3559 1356 
Q 3559 666 3084 287 
Q 2609 -91 1734 -91 
Q 1441 -91 1130 -33 
Q 819 25 488 141 
L 488 750 
Q 750 597 1062 519 
Q 1375 441 1716 441 
Q 2309 441 2620 675 
Q 2931 909 2931 1356 
Q 2931 1769 2642 2001 
Q 2353 2234 1838 2234 
L 1294 2234 
L 1294 2753 
L 1863 2753 
Q 2328 2753 2575 2939 
Q 2822 3125 2822 3475 
Q 2822 3834 2567 4026 
Q 2313 4219 1838 4219 
Q 1578 4219 1281 4162 
Q 984 4106 628 3988 
L 628 4550 
Q 988 4650 1302 4700 
Q 1616 4750 1894 4750 
Q 2613 4750 3031 4423 
Q 3450 4097 3450 3541 
Q 3450 3153 3228 2886 
Q 3006 2619 2597 2516 
z
" transform="scale(0.015625)"/>
      </defs>
      <use xlink:href="#DejaVuSans-52"/>
      <use xlink:href="#DejaVuSans-33" x="69.482422"/>
     </g>
    </g>
    <g id="patch_12">
     <path d="M 646.440625 118.510937 
L 666.440625 118.510937 
L 666.440625 111.510937 
L 646.440625 111.510937 
z
" style="fill: #bcbd22; stroke: #000000; stroke-linejoin: miter"/>
    </g>
    <g id="text_55">
     <!-- Sep -->
     <g transform="translate(674.440625 118.510937) scale(0.1 -0.1)">
      <use xlink:href="#DejaVuSans-53"/>
      <use xlink:href="#DejaVuSans-65" x="63.476562"/>
      <use xlink:href="#DejaVuSans-70" x="125"/>
     </g>
    </g>
    <g id="patch_13">
     <path d="M 646.440625 133.189062 
L 666.440625 133.189062 
L 666.440625 126.189062 
L 646.440625 126.189062 
z
" style="fill: #9467bd; stroke: #000000; stroke-linejoin: miter"/>
    </g>
    <g id="text_56">
     <!-- Pack1 -->
     <g transform="translate(674.440625 133.189062) scale(0.1 -0.1)">
      <use xlink:href="#DejaVuSans-50"/>
      <use xlink:href="#DejaVuSans-61" x="55.802734"/>
      <use xlink:href="#DejaVuSans-63" x="117.082031"/>
      <use xlink:href="#DejaVuSans-6b" x="172.0625"/>
      <use xlink:href="#DejaVuSans-31" x="229.972656"/>
     </g>
    </g>
    <g id="patch_14">
     <path d="M 646.440625 147.867187 
L 666.440625 147.867187 
L 666.440625 140.867187 
L 646.440625 140.867187 
z
" style="fill: #008080; stroke: #000000; stroke-linejoin: miter"/>
    </g>
    <g id="text_57">
     <!-- Pack2 -->
     <g transform="translate(674.440625 147.867187) scale(0.1 -0.1)">
      <use xlink:href="#DejaVuSans-50"/>
      <use xlink:href="#DejaVuSans-61" x="55.802734"/>
      <use xlink:href="#DejaVuSans-63" x="117.082031"/>
      <use xlink:href="#DejaVuSans-6b" x="172.0625"/>
      <use xlink:href="#DejaVuSans-32" x="229.972656"/>
     </g>
    </g>
   </g>
  </g>
 </g>
 <defs>
  <clipPath id="p90b913a2a8">
   <rect x="99" y="43.2" width="613.8" height="277.2"/>
  </clipPath>
 </defs>
</svg>
